<svg width="34" height="34" viewBox="0 0 34 34" fill="none" xmlns="http://www.w3.org/2000/svg">
<path d="M7.55835 4.43127H10.2478C11.5228 4.43129 12.2313 4.76544 12.6267 5.16174C13.0215 5.55742 13.3532 6.26464 13.3474 7.53772V10.234C13.3474 11.5085 13.0138 12.219 12.616 12.6168C12.2181 13.0147 11.5076 13.3483 10.2332 13.3483H7.54468C6.27025 13.3483 5.55972 13.0147 5.16187 12.6168C4.76401 12.219 4.43042 11.5085 4.43042 10.234V7.54553C4.43042 6.27121 4.76351 5.56123 5.16187 5.1637C5.56085 4.7656 6.27496 4.43128 7.55835 4.43127Z" fill="white" stroke="#3354F4" stroke-width="3.2"/>
<path d="M23.7371 4.43127H26.4255C27.7 4.43127 28.4105 4.76487 28.8083 5.16272C29.2062 5.56058 29.5398 6.27111 29.5398 7.54553V10.234C29.5398 11.5085 29.2062 12.219 28.8083 12.6168C28.4105 13.0147 27.7 13.3483 26.4255 13.3483H23.7371C22.4626 13.3483 21.7521 13.0147 21.3542 12.6168C20.9564 12.219 20.6228 11.5085 20.6228 10.234V7.54553C20.6228 6.27108 20.9564 5.56057 21.3542 5.16272C21.7521 4.76487 22.4626 4.43127 23.7371 4.43127Z" fill="white" stroke="#3354F4" stroke-width="3.2"/>
<path d="M23.7371 20.6084H26.4255C27.7 20.6084 28.4105 20.942 28.8083 21.3398C29.2062 21.7377 29.5398 22.4482 29.5398 23.7227V26.4111C29.5398 27.6856 29.2062 28.3961 28.8083 28.7939C28.4105 29.1918 27.7 29.5254 26.4255 29.5254H23.7371C22.4626 29.5254 21.7521 29.1918 21.3542 28.7939C20.9564 28.3961 20.6228 27.6856 20.6228 26.4111V23.7227C20.6228 22.4482 20.9564 21.7377 21.3542 21.3398C21.7521 20.942 22.4626 20.6084 23.7371 20.6084Z" fill="white" stroke="#3354F4" stroke-width="3.2"/>
<path d="M7.55835 20.6084H10.2478C11.5226 20.6084 12.2306 20.9421 12.6257 21.3389C13.0208 21.7357 13.3533 22.4474 13.3474 23.7295V26.4258C13.3474 27.7002 13.0138 28.4108 12.616 28.8086C12.2181 29.2063 11.5073 29.5391 10.2332 29.5391H7.54468C6.27024 29.5391 5.56036 29.206 5.16284 28.8076C4.76479 28.4086 4.43042 27.6944 4.43042 26.4111V23.7227C4.43042 22.4483 4.76351 21.7384 5.16187 21.3408C5.56085 20.9427 6.27496 20.6084 7.55835 20.6084Z" fill="white" stroke="#3354F4" stroke-width="3.2"/>
</svg>
