<svg width="188" height="27" viewBox="0 0 188 27" fill="none" xmlns="http://www.w3.org/2000/svg">
<path d="M8.85611 26.892C7.17611 26.892 5.66411 26.604 4.32011 26.028C2.97611 25.428 1.92011 24.588 1.15211 23.508C0.384109 22.428 0.000109449 21.168 0.000109449 19.728H4.39211C4.48811 20.808 4.90811 21.696 5.65211 22.392C6.42011 23.088 7.48811 23.436 8.85611 23.436C10.2721 23.436 11.3761 23.1 12.1681 22.428C12.9601 21.732 13.3561 20.844 13.3561 19.764C13.3561 18.924 13.1041 18.24 12.6001 17.712C12.1201 17.184 11.5081 16.776 10.7641 16.488C10.0441 16.2 9.03611 15.888 7.74011 15.552C6.10811 15.12 4.77611 14.688 3.74411 14.256C2.73611 13.8 1.87211 13.104 1.15211 12.168C0.432109 11.232 0.0721095 9.98401 0.0721095 8.42401C0.0721095 6.98401 0.432109 5.72401 1.15211 4.64401C1.87211 3.56401 2.88011 2.73601 4.17611 2.16001C5.47211 1.58401 6.97211 1.29601 8.67611 1.29601C11.1001 1.29601 13.0801 1.90801 14.6161 3.13201C16.1761 4.33201 17.0401 5.98801 17.2081 8.10001H12.6721C12.6001 7.18801 12.1681 6.40801 11.3761 5.76001C10.5841 5.11201 9.54011 4.78801 8.24411 4.78801C7.06811 4.78801 6.10811 5.08801 5.36411 5.68801C4.62011 6.28801 4.24811 7.15201 4.24811 8.28001C4.24811 9.04801 4.47611 9.68401 4.93211 10.188C5.41211 10.668 6.01211 11.052 6.73211 11.34C7.45211 11.628 8.43611 11.94 9.68411 12.276C11.3401 12.732 12.6841 13.188 13.7161 13.644C14.7721 14.1 15.6601 14.808 16.3801 15.768C17.1241 16.704 17.4961 17.964 17.4961 19.548C17.4961 20.82 17.1481 22.02 16.4521 23.148C15.7801 24.276 14.7841 25.188 13.4641 25.884C12.1681 26.556 10.6321 26.892 8.85611 26.892ZM46.3507 6.48001C47.9107 6.48001 49.3027 6.80401 50.5267 7.45201C51.7747 8.10001 52.7467 9.06001 53.4427 10.332C54.1627 11.604 54.5227 13.14 54.5227 14.94V26.64H50.4547V15.552C50.4547 13.776 50.0107 12.42 49.1227 11.484C48.2347 10.524 47.0227 10.044 45.4867 10.044C43.9507 10.044 42.7267 10.524 41.8147 11.484C40.9267 12.42 40.4827 13.776 40.4827 15.552V26.64H36.4147V15.552C36.4147 13.776 35.9707 12.42 35.0827 11.484C34.1947 10.524 32.9827 10.044 31.4467 10.044C29.9107 10.044 28.6867 10.524 27.7747 11.484C26.8867 12.42 26.4427 13.776 26.4427 15.552V26.64H22.3387V6.80401H26.4427V9.07201C27.1147 8.25601 27.9667 7.62001 28.9987 7.16401C30.0307 6.70801 31.1347 6.48001 32.3107 6.48001C33.8947 6.48001 35.3107 6.81601 36.5587 7.48801C37.8067 8.16001 38.7667 9.13201 39.4387 10.404C40.0387 9.20401 40.9747 8.25601 42.2467 7.56001C43.5187 6.84001 44.8867 6.48001 46.3507 6.48001ZM58.3769 16.632C58.3769 14.64 58.7849 12.876 59.6009 11.34C60.4409 9.80401 61.5689 8.61601 62.9849 7.77601C64.4249 6.91201 66.0089 6.48001 67.7369 6.48001C69.2969 6.48001 70.6529 6.79201 71.8049 7.41601C72.9809 8.01601 73.9169 8.77201 74.6129 9.68401V6.80401H78.7529V26.64H74.6129V23.688C73.9169 24.624 72.9689 25.404 71.7689 26.028C70.5689 26.652 69.2009 26.964 67.6649 26.964C65.9609 26.964 64.4009 26.532 62.9849 25.668C61.5689 24.78 60.4409 23.556 59.6009 21.996C58.7849 20.412 58.3769 18.624 58.3769 16.632ZM74.6129 16.704C74.6129 15.336 74.3249 14.148 73.7489 13.14C73.1969 12.132 72.4649 11.364 71.5529 10.836C70.6409 10.308 69.6569 10.044 68.6009 10.044C67.5449 10.044 66.5609 10.308 65.6489 10.836C64.7369 11.34 63.9929 12.096 63.4169 13.104C62.8649 14.088 62.5889 15.264 62.5889 16.632C62.5889 18 62.8649 19.2 63.4169 20.232C63.9929 21.264 64.7369 22.056 65.6489 22.608C66.5849 23.136 67.5689 23.4 68.6009 23.4C69.6569 23.4 70.6409 23.136 71.5529 22.608C72.4649 22.08 73.1969 21.312 73.7489 20.304C74.3249 19.272 74.6129 18.072 74.6129 16.704ZM88.2474 9.68401C88.8474 8.67601 89.6394 7.89601 90.6234 7.34401C91.6314 6.76801 92.8194 6.48001 94.1874 6.48001V10.728H93.1434C91.5354 10.728 90.3114 11.136 89.4714 11.952C88.6554 12.768 88.2474 14.184 88.2474 16.2V26.64H84.1434V6.80401H88.2474V9.68401ZM102.748 10.152V21.132C102.748 21.876 102.916 22.416 103.252 22.752C103.612 23.064 104.212 23.22 105.052 23.22H107.572V26.64H104.332C102.484 26.64 101.068 26.208 100.084 25.344C99.0998 24.48 98.6078 23.076 98.6078 21.132V10.152H96.2678V6.80401H98.6078V1.87201H102.748V6.80401H107.572V10.152H102.748ZM128.85 9.07201C128.85 10.344 128.55 11.544 127.95 12.672C127.35 13.8 126.39 14.724 125.07 15.444C123.75 16.14 122.058 16.488 119.994 16.488H115.458V26.64H111.354V1.62001H119.994C121.914 1.62001 123.534 1.95601 124.854 2.62801C126.198 3.27601 127.194 4.16401 127.842 5.29201C128.514 6.42001 128.85 7.68001 128.85 9.07201ZM119.994 13.14C121.554 13.14 122.718 12.792 123.486 12.096C124.254 11.376 124.638 10.368 124.638 9.07201C124.638 6.33601 123.09 4.96801 119.994 4.96801H115.458V13.14H119.994ZM131.396 16.632C131.396 14.64 131.804 12.876 132.62 11.34C133.46 9.80401 134.588 8.61601 136.004 7.77601C137.444 6.91201 139.028 6.48001 140.756 6.48001C142.316 6.48001 143.672 6.79201 144.824 7.41601C146 8.01601 146.936 8.77201 147.632 9.68401V6.80401H151.772V26.64H147.632V23.688C146.936 24.624 145.988 25.404 144.788 26.028C143.588 26.652 142.22 26.964 140.684 26.964C138.98 26.964 137.42 26.532 136.004 25.668C134.588 24.78 133.46 23.556 132.62 21.996C131.804 20.412 131.396 18.624 131.396 16.632ZM147.632 16.704C147.632 15.336 147.344 14.148 146.768 13.14C146.216 12.132 145.484 11.364 144.572 10.836C143.66 10.308 142.676 10.044 141.62 10.044C140.564 10.044 139.58 10.308 138.668 10.836C137.756 11.34 137.012 12.096 136.436 13.104C135.884 14.088 135.608 15.264 135.608 16.632C135.608 18 135.884 19.2 136.436 20.232C137.012 21.264 137.756 22.056 138.668 22.608C139.604 23.136 140.588 23.4 141.62 23.4C142.676 23.4 143.66 23.136 144.572 22.608C145.484 22.08 146.216 21.312 146.768 20.304C147.344 19.272 147.632 18.072 147.632 16.704ZM161.267 9.68401C161.867 8.67601 162.659 7.89601 163.643 7.34401C164.651 6.76801 165.839 6.48001 167.207 6.48001V10.728H166.163C164.555 10.728 163.331 11.136 162.491 11.952C161.675 12.768 161.267 14.184 161.267 16.2V26.64H157.163V6.80401H161.267V9.68401ZM178.827 16.74L187.971 26.64H182.427L175.083 18.108V26.64H170.979V1.43051e-05H175.083V15.48L182.283 6.80401H187.971L178.827 16.74Z" fill="black"/>
</svg>
