<svg width="37" height="35" viewBox="0 0 37 35" fill="none" xmlns="http://www.w3.org/2000/svg">
<path d="M1.5 31.5C1.49976 29.3436 2.02253 27.2194 3.02346 25.3094C4.0244 23.3995 5.47365 21.7608 7.24692 20.5339C9.0202 19.3069 11.0646 18.5284 13.2048 18.265C15.345 18.0016 17.5172 18.2613 19.535 19.0217M33.7967 24.21C34.4606 23.5461 34.8336 22.6456 34.8336 21.7067C34.8336 20.7677 34.4606 19.8673 33.7967 19.2033C33.1327 18.5394 32.2323 18.1664 31.2933 18.1664C30.3544 18.1664 29.4539 18.5394 28.79 19.2033L22.1067 25.89C21.7104 26.286 21.4204 26.7756 21.2633 27.3133L19.8683 32.0967C19.8265 32.2401 19.824 32.3921 19.8611 32.5368C19.8982 32.6815 19.9734 32.8136 20.0791 32.9193C20.1847 33.0249 20.3168 33.1002 20.4615 33.1373C20.6062 33.1743 20.7583 33.1718 20.9017 33.13L25.685 31.735C26.2228 31.578 26.7123 31.2879 27.1083 30.8917L33.7967 24.21ZM23.1667 9.83333C23.1667 14.4357 19.4357 18.1667 14.8333 18.1667C10.231 18.1667 6.5 14.4357 6.5 9.83333C6.5 5.23096 10.231 1.5 14.8333 1.5C19.4357 1.5 23.1667 5.23096 23.1667 9.83333Z" stroke="#A3AED0" stroke-width="3" stroke-linecap="round" stroke-linejoin="round"/>
</svg>
